<mxfile host="Electron" modified="2024-03-23T12:20:10.598Z" agent="Mozilla/5.0 (Macintosh; Intel Mac OS X 10_15_7) AppleWebKit/537.36 (KHTML, like Gecko) draw.io/22.1.11 Chrome/114.0.5735.289 Electron/25.9.8 Safari/537.36" etag="GxcD5jTCvq3Jx7yqun9N" version="22.1.11" type="device">
  <diagram name="第 1 页" id="LbLHYrfMs61iux43dW0h">
    <mxGraphModel dx="954" dy="589" grid="1" gridSize="10" guides="1" tooltips="1" connect="1" arrows="1" fold="1" page="1" pageScale="1" pageWidth="827" pageHeight="1169" math="0" shadow="0">
      <root>
        <mxCell id="0" />
        <mxCell id="1" parent="0" />
        <mxCell id="cn6zgCMVT8ZUmNyIOQIg-2" value="" style="edgeStyle=orthogonalEdgeStyle;rounded=0;orthogonalLoop=1;jettySize=auto;html=1;entryX=0;entryY=0.5;entryDx=0;entryDy=0;" parent="1" source="njytcRA9__mMUklmKUCp-1" target="cn6zgCMVT8ZUmNyIOQIg-1" edge="1">
          <mxGeometry relative="1" as="geometry" />
        </mxCell>
        <mxCell id="cn6zgCMVT8ZUmNyIOQIg-5" style="edgeStyle=orthogonalEdgeStyle;rounded=0;orthogonalLoop=1;jettySize=auto;html=1;entryX=0;entryY=0.5;entryDx=0;entryDy=0;" parent="1" source="njytcRA9__mMUklmKUCp-1" target="cn6zgCMVT8ZUmNyIOQIg-4" edge="1">
          <mxGeometry relative="1" as="geometry" />
        </mxCell>
        <mxCell id="cn6zgCMVT8ZUmNyIOQIg-6" style="edgeStyle=orthogonalEdgeStyle;rounded=0;orthogonalLoop=1;jettySize=auto;html=1;entryX=0;entryY=0.5;entryDx=0;entryDy=0;" parent="1" source="njytcRA9__mMUklmKUCp-1" target="cn6zgCMVT8ZUmNyIOQIg-3" edge="1">
          <mxGeometry relative="1" as="geometry" />
        </mxCell>
        <mxCell id="njytcRA9__mMUklmKUCp-1" value="国民收入概述" style="rounded=0;whiteSpace=wrap;html=1;" parent="1" vertex="1">
          <mxGeometry x="40" y="360" width="120" height="60" as="geometry" />
        </mxCell>
        <mxCell id="cn6zgCMVT8ZUmNyIOQIg-8" value="" style="edgeStyle=orthogonalEdgeStyle;rounded=0;orthogonalLoop=1;jettySize=auto;html=1;entryX=0;entryY=0.5;entryDx=0;entryDy=0;" parent="1" source="cn6zgCMVT8ZUmNyIOQIg-1" target="cn6zgCMVT8ZUmNyIOQIg-7" edge="1">
          <mxGeometry relative="1" as="geometry" />
        </mxCell>
        <mxCell id="cn6zgCMVT8ZUmNyIOQIg-13" style="edgeStyle=orthogonalEdgeStyle;rounded=0;orthogonalLoop=1;jettySize=auto;html=1;" parent="1" source="cn6zgCMVT8ZUmNyIOQIg-1" target="cn6zgCMVT8ZUmNyIOQIg-10" edge="1">
          <mxGeometry relative="1" as="geometry" />
        </mxCell>
        <mxCell id="cn6zgCMVT8ZUmNyIOQIg-14" style="edgeStyle=orthogonalEdgeStyle;rounded=0;orthogonalLoop=1;jettySize=auto;html=1;entryX=0;entryY=0.5;entryDx=0;entryDy=0;" parent="1" source="cn6zgCMVT8ZUmNyIOQIg-1" target="cn6zgCMVT8ZUmNyIOQIg-9" edge="1">
          <mxGeometry relative="1" as="geometry" />
        </mxCell>
        <mxCell id="cn6zgCMVT8ZUmNyIOQIg-1" value="1.国民收入的核算" style="rounded=0;whiteSpace=wrap;html=1;" parent="1" vertex="1">
          <mxGeometry x="240" y="160" width="120" height="60" as="geometry" />
        </mxCell>
        <mxCell id="cn6zgCMVT8ZUmNyIOQIg-20" value="" style="edgeStyle=orthogonalEdgeStyle;rounded=0;orthogonalLoop=1;jettySize=auto;html=1;entryX=0;entryY=0.5;entryDx=0;entryDy=0;" parent="1" source="cn6zgCMVT8ZUmNyIOQIg-3" target="cn6zgCMVT8ZUmNyIOQIg-19" edge="1">
          <mxGeometry relative="1" as="geometry" />
        </mxCell>
        <mxCell id="cn6zgCMVT8ZUmNyIOQIg-23" style="edgeStyle=orthogonalEdgeStyle;rounded=0;orthogonalLoop=1;jettySize=auto;html=1;" parent="1" source="cn6zgCMVT8ZUmNyIOQIg-3" target="cn6zgCMVT8ZUmNyIOQIg-21" edge="1">
          <mxGeometry relative="1" as="geometry" />
        </mxCell>
        <mxCell id="cn6zgCMVT8ZUmNyIOQIg-24" style="edgeStyle=orthogonalEdgeStyle;rounded=0;orthogonalLoop=1;jettySize=auto;html=1;entryX=0;entryY=0.5;entryDx=0;entryDy=0;" parent="1" source="cn6zgCMVT8ZUmNyIOQIg-3" target="cn6zgCMVT8ZUmNyIOQIg-22" edge="1">
          <mxGeometry relative="1" as="geometry" />
        </mxCell>
        <mxCell id="cn6zgCMVT8ZUmNyIOQIg-3" value="3.均衡国民收入的决定" style="rounded=0;whiteSpace=wrap;html=1;" parent="1" vertex="1">
          <mxGeometry x="240" y="560" width="120" height="60" as="geometry" />
        </mxCell>
        <mxCell id="cn6zgCMVT8ZUmNyIOQIg-16" value="" style="edgeStyle=orthogonalEdgeStyle;rounded=0;orthogonalLoop=1;jettySize=auto;html=1;" parent="1" source="cn6zgCMVT8ZUmNyIOQIg-4" target="cn6zgCMVT8ZUmNyIOQIg-15" edge="1">
          <mxGeometry relative="1" as="geometry" />
        </mxCell>
        <mxCell id="cn6zgCMVT8ZUmNyIOQIg-18" style="edgeStyle=orthogonalEdgeStyle;rounded=0;orthogonalLoop=1;jettySize=auto;html=1;" parent="1" source="cn6zgCMVT8ZUmNyIOQIg-4" target="cn6zgCMVT8ZUmNyIOQIg-17" edge="1">
          <mxGeometry relative="1" as="geometry" />
        </mxCell>
        <mxCell id="cn6zgCMVT8ZUmNyIOQIg-4" value="2.国民收入的循环" style="rounded=0;whiteSpace=wrap;html=1;" parent="1" vertex="1">
          <mxGeometry x="240" y="360" width="120" height="60" as="geometry" />
        </mxCell>
        <mxCell id="cn6zgCMVT8ZUmNyIOQIg-7" value="1.国民收入核算的概念&lt;br&gt;2.国民收入核算体系的作用" style="rounded=0;whiteSpace=wrap;html=1;" parent="1" vertex="1">
          <mxGeometry x="440" y="80" width="120" height="60" as="geometry" />
        </mxCell>
        <mxCell id="cn6zgCMVT8ZUmNyIOQIg-9" value="4.国民生产总值及其核算" style="rounded=0;whiteSpace=wrap;html=1;" parent="1" vertex="1">
          <mxGeometry x="440" y="240" width="120" height="60" as="geometry" />
        </mxCell>
        <mxCell id="cn6zgCMVT8ZUmNyIOQIg-10" value="3.国民收入的基本总量" style="rounded=0;whiteSpace=wrap;html=1;" parent="1" vertex="1">
          <mxGeometry x="440" y="160" width="120" height="60" as="geometry" />
        </mxCell>
        <mxCell id="cn6zgCMVT8ZUmNyIOQIg-15" value="1.两部门经济" style="rounded=0;whiteSpace=wrap;html=1;" parent="1" vertex="1">
          <mxGeometry x="440" y="320" width="120" height="60" as="geometry" />
        </mxCell>
        <mxCell id="cn6zgCMVT8ZUmNyIOQIg-17" value="2.三部门经济" style="rounded=0;whiteSpace=wrap;html=1;" parent="1" vertex="1">
          <mxGeometry x="440" y="400" width="120" height="60" as="geometry" />
        </mxCell>
        <mxCell id="cn6zgCMVT8ZUmNyIOQIg-19" value="1.消费函数、储蓄函数与投资函数" style="rounded=0;whiteSpace=wrap;html=1;" parent="1" vertex="1">
          <mxGeometry x="440" y="480" width="120" height="60" as="geometry" />
        </mxCell>
        <mxCell id="cn6zgCMVT8ZUmNyIOQIg-21" value="2.均衡国民收入决定的基本原理" style="rounded=0;whiteSpace=wrap;html=1;" parent="1" vertex="1">
          <mxGeometry x="440" y="560" width="120" height="60" as="geometry" />
        </mxCell>
        <mxCell id="cn6zgCMVT8ZUmNyIOQIg-22" value="3.乘数原理" style="rounded=0;whiteSpace=wrap;html=1;" parent="1" vertex="1">
          <mxGeometry x="440" y="640" width="120" height="60" as="geometry" />
        </mxCell>
      </root>
    </mxGraphModel>
  </diagram>
</mxfile>
